<?xml version="1.0" encoding="UTF-8" standalone="no" ?>
<!DOCTYPE svg PUBLIC "-//W3C//DTD SVG 1.1//EN" "http://www.w3.org/Graphics/SVG/1.1/DTD/svg11.dtd">
<svg xmlns="http://www.w3.org/2000/svg" xmlns:xlink="http://www.w3.org/1999/xlink" version="1.1" width="210mm" height="297mm" viewBox="0 0 595.27559 841.88976" xml:space="preserve">
<desc>Created with Fabric.js 4.6.0</desc>
<defs>
</defs>
<g transform="matrix(0.93 0 0 0.92 436.4 669.98)" id="hz6fx8NxsnWjT484kpZmI"  >
<path style="stroke: rgb(241,192,204); stroke-width: 0; stroke-dasharray: none; stroke-linecap: butt; stroke-dashoffset: 0; stroke-linejoin: miter; stroke-miterlimit: 4; fill: rgb(241,192,204); fill-rule: nonzero; opacity: 1;" vector-effect="non-scaling-stroke"  transform=" translate(0, 0)" d="M 0 -92.59843 C 51.11433 -92.59843 92.59843 -51.11433999999999 92.59843 0 C 92.59843 51.11433 51.11433999999999 92.59843 0 92.59843 C -51.11433 92.59843 -92.59843 51.11433999999999 -92.59843 0 C -92.59843 -51.11433 -51.11433999999999 -92.59843 0 -92.59843 z" stroke-linecap="round" />
</g>
<g transform="matrix(0.7 0 0 0.76 436.4 669.98)" id="d1iwwWq0Blmv9aJ73gc_V"  >
<path style="stroke: rgb(241,192,204); stroke-width: 0; stroke-dasharray: none; stroke-linecap: butt; stroke-dashoffset: 0; stroke-linejoin: miter; stroke-miterlimit: 4; fill: rgb(29,29,29); fill-rule: nonzero; opacity: 1;" vector-effect="non-scaling-stroke"  transform=" translate(0, 0)" d="M 0 -62.99213 C 34.77165 -62.99213 62.99213 -34.771660000000004 62.99213 0 C 62.99213 34.77165 34.771660000000004 62.99213 0 62.99213 C -34.77165 62.99213 -62.99213 34.771660000000004 -62.99213 0 C -62.99213 -34.77165 -34.771660000000004 -62.99213 0 -62.99213 z" stroke-linecap="round" />
</g>
<g transform="matrix(0.87 0 0 0.92 255.8 669.98)" id="662XbZaLdpZk-fvPd2YrH"  >
<path style="stroke: rgb(241,192,204); stroke-width: 0; stroke-dasharray: none; stroke-linecap: butt; stroke-dashoffset: 0; stroke-linejoin: miter; stroke-miterlimit: 4; fill: rgb(241,192,204); fill-rule: nonzero; opacity: 1;" vector-effect="non-scaling-stroke"  transform=" translate(0, 0)" d="M -221.15143 -134.93584 C -221.15143 -134.93584 -229.02545 132.39876999999998 2.4706199999999967 134.91846 C 233.96668 137.43815 221.0533 -134.93584 221.0533 -134.93584 z" stroke-linecap="round" />
</g>
<g transform="matrix(3 0 0 0.55 257.18 545.68)" id="4Zw_H31ckmD5RTcZQ2X_I"  >
<path style="stroke: rgb(241,192,204); stroke-width: 10; stroke-dasharray: none; stroke-linecap: butt; stroke-dashoffset: 0; stroke-linejoin: miter; stroke-miterlimit: 4; fill: rgb(255,255,255); fill-rule: nonzero; opacity: 1;" vector-effect="non-scaling-stroke"  transform=" translate(0, 0)" d="M 0 -62.99213 C 34.77165 -62.99213 62.99213 -34.771660000000004 62.99213 0 C 62.99213 34.77165 34.771660000000004 62.99213 0 62.99213 C -34.77165 62.99213 -62.99213 34.771660000000004 -62.99213 0 C -62.99213 -34.77165 -34.771660000000004 -62.99213 0 -62.99213 z" stroke-linecap="round" />
</g>
<g transform="matrix(0.87 0 0 0.92 257.18 454.43)" id="D1kEu3siyxeABiDUdCxs7"  >
<path style="stroke: rgb(241,192,204); stroke-width: 0; stroke-dasharray: none; stroke-linecap: butt; stroke-dashoffset: 0; stroke-linejoin: miter; stroke-miterlimit: 4; fill: rgb(0,255,110); fill-rule: nonzero; opacity: 1;" vector-effect="non-scaling-stroke"  transform=" translate(0, 0)" d="M -13.81579 -115.13151 L 87.5 -115.13151 L 26.71053 -48.81576000000001 L 78.28948 -48.81576000000001 L -87.49999 115.13149999999999 L -32.23683 -8.289470000000009 L -72.76315 -8.289470000000009 z" stroke-linecap="round" />
</g>
<g transform="matrix(0.87 0 0 0.92 493.86 198.77)" id="3SPGRr35PBP_5dpF-ENRy"  >
<path style="stroke: rgb(241,192,204); stroke-width: 0; stroke-dasharray: none; stroke-linecap: butt; stroke-dashoffset: 0; stroke-linejoin: miter; stroke-miterlimit: 4; fill: rgb(0,255,110); fill-rule: nonzero; opacity: 1;" vector-effect="non-scaling-stroke"  transform=" translate(0, 0)" d="M -13.81579 -115.13149 L 87.49999 -115.13149 L 26.710519999999995 -48.815749999999994 L 78.28945999999999 -48.815749999999994 L -87.5 115.13149 L -32.23685 -8.289469999999994 L -72.76316 -8.289469999999994 z" stroke-linecap="round" />
</g>
<g transform="matrix(0.87 0 0 0.92 146.67 198.77)" id="xZSkIPi8GjMC8U1MzntGo"  >
<path style="stroke: rgb(241,192,204); stroke-width: 0; stroke-dasharray: none; stroke-linecap: butt; stroke-dashoffset: 0; stroke-linejoin: miter; stroke-miterlimit: 4; fill: rgb(0,255,110); fill-rule: nonzero; opacity: 1;" vector-effect="non-scaling-stroke"  transform=" translate(0, 0)" d="M -13.81579 -115.13149 L 87.49999 -115.13149 L 26.710519999999995 -48.815749999999994 L 78.28945999999999 -48.815749999999994 L -87.5 115.13149 L -32.23685 -8.289469999999994 L -72.76316 -8.289469999999994 z" stroke-linecap="round" />
</g>
</svg>